HIERARCHY
ROOT hip
{
  OFFSET 0 0 0
  CHANNELS 6 Xposition Yposition Zposition Zrotation Yrotation Xrotation
  JOINT abdomen
  {
    OFFSET 0 20.6881 -0.73152
    CHANNELS 3 Zrotation Xrotation Yrotation
    JOINT chest
    {
      OFFSET 0 11.7043 -0.48768
      CHANNELS 3 Zrotation Xrotation Yrotation
      JOINT neck
      {
        OFFSET 0 22.1894 -2.19456
        CHANNELS 3 Zrotation Xrotation Yrotation
        JOINT head
        {
          OFFSET -0.24384 7.07133 1.2192
          CHANNELS 3 Zrotation Xrotation Yrotation
          JOINT leftEye
          {
            OFFSET 4.14528 8.04674 8.04672
            CHANNELS 3 Zrotation Xrotation Yrotation
            End Site
            {
              OFFSET 1 0 0
            }
          }
          JOINT rightEye
          {
            OFFSET -3.6576 8.04674 8.04672
            CHANNELS 3 Zrotation Xrotation Yrotation
            End Site
            {
              OFFSET 1 0 0
            }
          }
        }
      }
      JOINT rCollar
      {
        OFFSET -2.68224 19.2634 -4.8768
        CHANNELS 3 Zrotation Xrotation Yrotation
        JOINT rShldr
        {
          OFFSET -8.77824 -1.95073 1.46304
          CHANNELS 3 Zrotation Xrotation Yrotation
          JOINT rForeArm
          {
            OFFSET -28.1742 -1.7115 0.48768
            CHANNELS 3 Zrotation Xrotation Yrotation
            JOINT rHand
            {
              OFFSET -22.5879 0.773209 7.07136
              CHANNELS 3 Zrotation Xrotation Yrotation
              JOINT rThumb1
              {
                OFFSET -1.2192 -0.487915 3.41376
                CHANNELS 3 Zrotation Xrotation Yrotation
                JOINT rThumb2
                {
                  OFFSET -3.37035 -0.52449 3.41376
                  CHANNELS 3 Zrotation Xrotation Yrotation
                  End Site
                  {
                    OFFSET -1.78271 -1.18214 1.43049
                  }
                }
              }
              JOINT rIndex1
              {
                OFFSET -7.75947 0.938293 5.60832
                CHANNELS 3 Zrotation Xrotation Yrotation
                JOINT rIndex2
                {
                  OFFSET -2.54057 -0.884171 1.56538
                  CHANNELS 3 Zrotation Xrotation Yrotation
                  End Site
                  {
                    OFFSET -1.62519 -0.234802 1.16502
                  }
                }
              }
              JOINT rMid1
              {
                OFFSET -8.24714 1.18213 3.41376
                CHANNELS 3 Zrotation Xrotation Yrotation
                JOINT rMid2
                {
                  OFFSET -3.10165 -0.590103 1.0647
                  CHANNELS 3 Zrotation Xrotation Yrotation
                  End Site
                  {
                    OFFSET -2.48547 -0.328903 0.83742
                  }
                }
              }
              JOINT rRing1
              {
                OFFSET -8.82822 0.546677 1.51678
                CHANNELS 3 Zrotation Xrotation Yrotation
                JOINT rRing2
                {
                  OFFSET -2.60934 -0.819778 -0.0198488
                  CHANNELS 3 Zrotation Xrotation Yrotation
                  End Site
                  {
                    OFFSET -2.33842 -0.294052 0.168128
                  }
                }
              }
              JOINT rPinky1
              {
                OFFSET -8.27202 -0.0477905 -0.4584
                CHANNELS 3 Zrotation Xrotation Yrotation
                JOINT rPinky2
                {
                  OFFSET -1.82734 -0.647385 -0.700984
                  CHANNELS 3 Zrotation Xrotation Yrotation
                  End Site
                  {
                    OFFSET -1.69225 -0.51767 -0.607171
                  }
                }
              }
            }
          }
        }
      }
      JOINT lCollar
      {
        OFFSET 2.68224 19.2634 -4.8768
        CHANNELS 3 Zrotation Xrotation Yrotation
        JOINT lShldr
        {
          OFFSET 8.77824 -1.95073 1.46304
          CHANNELS 3 Zrotation Xrotation Yrotation
          JOINT lForeArm
          {
            OFFSET 28.1742 -1.7115 0.48768
            CHANNELS 3 Zrotation Xrotation Yrotation
            JOINT lHand
            {
              OFFSET 22.5879 0.773209 7.07136
              CHANNELS 3 Zrotation Xrotation Yrotation
              JOINT lThumb1
              {
                OFFSET 1.2192 -0.487915 3.41376
                CHANNELS 3 Zrotation Xrotation Yrotation
                JOINT lThumb2
                {
                  OFFSET 3.37035 -0.52449 3.41376
                  CHANNELS 3 Zrotation Xrotation Yrotation
                  End Site
                  {
                    OFFSET 1.78271 -1.18214 1.43049
                  }
                }
              }
              JOINT lIndex1
              {
                OFFSET 7.75947 0.938293 5.60832
                CHANNELS 3 Zrotation Xrotation Yrotation
                JOINT lIndex2
                {
                  OFFSET 2.54057 -0.884171 1.56538
                  CHANNELS 3 Zrotation Xrotation Yrotation
                  End Site
                  {
                    OFFSET 1.62519 -0.234802 1.16502
                  }
                }
              }
              JOINT lMid1
              {
                OFFSET 8.24714 1.18213 3.41376
                CHANNELS 3 Zrotation Xrotation Yrotation
                JOINT lMid2
                {
                  OFFSET 3.10165 -0.590103 1.0647
                  CHANNELS 3 Zrotation Xrotation Yrotation
                  End Site
                  {
                    OFFSET 2.48547 -0.328903 0.83742
                  }
                }
              }
              JOINT lRing1
              {
                OFFSET 8.82822 0.546677 1.51678
                CHANNELS 3 Zrotation Xrotation Yrotation
                JOINT lRing2
                {
                  OFFSET 2.60934 -0.819778 -0.0198488
                  CHANNELS 3 Zrotation Xrotation Yrotation
                  End Site
                  {
                    OFFSET 2.33842 -0.294052 0.168128
                  }
                }
              }
              JOINT lPinky1
              {
                OFFSET 8.27202 -0.0477905 -0.4584
                CHANNELS 3 Zrotation Xrotation Yrotation
                JOINT lPinky2
                {
                  OFFSET 1.82734 -0.647385 -0.700984
                  CHANNELS 3 Zrotation Xrotation Yrotation
                  End Site
                  {
                    OFFSET 1.69225 -0.51767 -0.607171
                  }
                }
              }
            }
          }
        }
      }
    }
  }
  JOINT rButtock
  {
    OFFSET -8.77824 4.35084 1.2192
    CHANNELS 3 Zrotation Xrotation Yrotation
    JOINT rThigh
    {
      OFFSET 0 -1.70687 -2.19456
      CHANNELS 3 Zrotation Xrotation Yrotation
      JOINT rShin
      {
        OFFSET 0 -36.8199 0.73152
        CHANNELS 3 Zrotation Xrotation Yrotation
        JOINT rFoot
        {
          OFFSET 0.73152 -45.1104 -5.12064
          CHANNELS 3 Zrotation Xrotation Yrotation
          End Site
          {
            OFFSET -1.1221 -3.69964 12.103
          }
        }
      }
    }
  }
  JOINT lButtock
  {
    OFFSET 8.77824 4.35084 1.2192
    CHANNELS 3 Zrotation Xrotation Yrotation
    JOINT lThigh
    {
      OFFSET 0 -1.70687 -2.19456
      CHANNELS 3 Zrotation Xrotation Yrotation
      JOINT lShin
      {
        OFFSET 0 -36.8199 0.73152
        CHANNELS 3 Zrotation Xrotation Yrotation
        JOINT lFoot
        {
          OFFSET -0.73152 -45.1104 -5.12064
          CHANNELS 3 Zrotation Xrotation Yrotation
          End Site
          {
            OFFSET 1.1221 -3.69964 12.103
          }
        }
      }
    }
  }
}
MOTION
Frames:	9
Frame Time:	0.00833333
50.2778 84.8493 -215.981 -1.8757 -4.2696 -2.4184 5.002 11.1753 2.89596 1.05891 -4.03178 1.05431 0.421619 10.7868 0.00376814 -11.282 -23.2879 -2.36488 -0.0 0.0 0.0 -0.0 0.0 0.0 1.1485e-13 1.02617e-13 9.92366e-14 75.576 56.0066 2.21016 -14.9649 -7.76066 27.5148 -0.0910425 8.5925 1.21676 -7.32251e-10 1.52246e-09 -1.02422e-09 -1.27338e-09 2.6317e-09 -1.76559e-09 -7.32237e-10 1.52246e-09 -1.02423e-09 7.73091 5.47488 0.417314 -7.32252e-10 1.52246e-09 -1.02423e-09 2.90554 0.965183 0.102902 -7.3224e-10 1.52246e-09 -1.02423e-09 10.2786 0.731801 0.0259123 -7.32259e-10 1.52246e-09 -1.02422e-09 2.22167 -0.733487 -0.20892 1.14633e-13 1.02614e-13 9.89835e-14 -79.7183 33.7052 -1.407 16.8019 -9.45414 -31.3846 0.204918 12.7896 -1.82823 -1.19543e-09 -2.2686e-09 -1.0355e-09 -2.07618e-09 -3.9191e-09 -1.77732e-09 -1.19544e-09 -2.26861e-09 -1.03549e-09 -7.73091 5.47488 -0.417314 -1.19543e-09 -2.2686e-09 -1.03549e-09 -2.90554 0.965183 -0.102902 -1.19544e-09 -2.2686e-09 -1.0355e-09 -10.2786 0.731801 -0.0259123 -1.19543e-09 -2.2686e-09 -1.0355e-09 -2.22167 -0.733487 0.20892 -2.03217e-16 0.0 -3.88251e-19 17.8094 -9.15442 9.21586 0.0893353 26.9632 0.933009 -13.6268 -14.11 -38.1854 2.03217e-16 0.0 3.88251e-19 1.2374 -22.5517 -18.3176 0.18754 29.0004 -0.620447 -0.873103 -8.54726 -5.10914
50.2728 84.849 -216.011 -1.8735 -4.3669 -2.4159 5.07839 11.1251 2.92434 0.981492 -3.90199 1.06011 0.440012 10.7389 0.015331 -11.265 -23.3461 -2.34645 -0.0 0.0 0.0 -0.0 0.0 0.0 9.44096e-14 4.28872e-14 1.10291e-13 75.3433 56.0281 2.63145 -14.8362 -7.6505 27.2496 -0.0997677 8.99781 1.27507 -9.50874e-10 1.53079e-09 -8.72045e-10 -1.64989e-09 2.64226e-09 -1.50007e-09 -9.50858e-10 1.53079e-09 -8.72051e-10 7.73091 5.47488 0.417314 -9.50873e-10 1.53078e-09 -8.72047e-10 2.90554 0.965183 0.102902 -9.50865e-10 1.53078e-09 -8.72045e-10 10.2786 0.731801 0.0259123 -9.50884e-10 1.53078e-09 -8.72039e-10 2.22167 -0.733487 -0.20892 9.42371e-14 4.28872e-14 1.1003e-13 -79.5653 33.8122 -1.61776 16.8201 -9.47204 -31.4239 0.204779 12.7853 -1.8276 -1.07536e-09 -2.22503e-09 -1.10067e-09 -1.86992e-09 -3.84686e-09 -1.89185e-09 -1.07537e-09 -2.22504e-09 -1.10066e-09 -7.73091 5.47488 -0.417314 -1.07536e-09 -2.22503e-09 -1.10067e-09 -2.90554 0.965183 -0.102902 -1.07537e-09 -2.22503e-09 -1.10067e-09 -10.2786 0.731801 -0.0259123 -1.07536e-09 -2.22503e-09 -1.10068e-09 -2.22167 -0.733487 0.20892 -2.03217e-16 0.0 -3.88251e-19 17.8774 -9.15693 9.38584 0.0867128 26.961 0.935328 -13.7639 -14.2761 -38.2302 2.03217e-16 0.0 3.88251e-19 1.29565 -22.552 -18.2646 0.187056 28.9847 -0.620132 -0.846108 -8.54945 -4.99425
50.2592 84.8449 -216.031 -1.8924 -4.4965 -2.3804 5.16342 11.0711 2.94336 0.901686 -3.76771 1.06337 0.441041 10.7023 0.0361459 -11.2295 -23.4159 -2.30519 -0.0 0.0 0.0 -0.0 0.0 0.0 7.44405e-14 -1.80109e-14 1.113e-13 75.1245 56.0298 3.03906 -14.7022 -7.53599 26.9762 -0.109699 9.41935 1.33592 -1.12134e-09 1.47493e-09 -7.01054e-10 -1.94303e-09 2.54222e-09 -1.20242e-09 -1.12132e-09 1.47493e-09 -7.01057e-10 7.73091 5.47488 0.417314 -1.12134e-09 1.47492e-09 -7.01048e-10 2.90554 0.965183 0.102902 -1.12133e-09 1.47492e-09 -7.01051e-10 10.2786 0.731801 0.0259123 -1.12135e-09 1.47492e-09 -7.01043e-10 2.22167 -0.733487 -0.20892 7.43166e-14 -1.80071e-14 1.11037e-13 -79.4204 33.8989 -1.82294 16.8363 -9.48813 -31.459 0.204559 12.7786 -1.82661 -9.11526e-10 -2.08976e-09 -1.1198e-09 -1.58746e-09 -3.61591e-09 -1.92713e-09 -9.11532e-10 -2.08977e-09 -1.11979e-09 -7.73091 5.47488 -0.417314 -9.11525e-10 -2.08976e-09 -1.1198e-09 -2.90554 0.965183 -0.102902 -9.11528e-10 -2.08976e-09 -1.11981e-09 -10.2786 0.731801 -0.0259123 -9.11519e-10 -2.08976e-09 -1.11981e-09 -2.22167 -0.733487 0.20892 -2.03217e-16 0.0 -3.88251e-19 17.939 -9.15245 9.54082 0.0843285 26.954 0.937502 -13.898 -14.4398 -38.2731 2.03217e-16 0.0 3.88251e-19 1.34684 -22.5461 -18.226 0.186561 28.9665 -0.619873 -0.817414 -8.54738 -4.87494
50.2377 84.8376 -216.059 -1.9471 -4.6221 -2.3048 5.21935 11.0371 2.95201 0.854094 -3.68405 1.0646 0.429486 10.676 0.0643132 -11.2066 -23.4439 -2.2463 -0.0 0.0 0.0 -0.0 0.0 0.0 6.3361e-14 -4.37361e-14 9.85972e-14 74.9787 56.0394 3.31935 -14.6043 -7.4526 26.7781 -0.11783 9.74181 1.3826 -1.08672e-09 1.27642e-09 -5.77856e-10 -1.88236e-09 2.19814e-09 -9.8933e-10 -1.0867e-09 1.27642e-09 -5.77859e-10 7.73091 5.47488 0.417314 -1.08671e-09 1.27641e-09 -5.77846e-10 2.90554 0.965183 0.102902 -1.08671e-09 1.27641e-09 -5.77853e-10 10.2786 0.731801 0.0259123 -1.08673e-09 1.27641e-09 -5.77843e-10 2.22167 -0.733487 -0.20892 6.32689e-14 -4.37295e-14 9.83487e-14 -79.3242 33.9691 -1.97406 16.8544 -9.50602 -31.4981 0.204347 12.7721 -1.82565 -7.44024e-10 -1.83415e-09 -1.03016e-09 -1.29706e-09 -3.175e-09 -1.77406e-09 -7.44029e-10 -1.83416e-09 -1.03015e-09 -7.73091 5.47488 -0.417314 -7.44024e-10 -1.83415e-09 -1.03016e-09 -2.90554 0.965183 -0.102902 -7.44025e-10 -1.83415e-09 -1.03017e-09 -10.2786 0.731801 -0.0259123 -7.44016e-10 -1.83415e-09 -1.03018e-09 -2.22167 -0.733487 0.20892 -2.03217e-16 0.0 -3.88251e-19 17.9655 -9.15184 9.64236 0.0828747 26.9507 0.938422 -13.9643 -14.5306 -38.2784 2.03217e-16 0.0 3.88251e-19 1.37702 -22.5378 -18.19 0.18624 28.9471 -0.619397 -0.792221 -8.53289 -4.77478
50.2202 84.838 -216.087 -1.9763 -4.745 -2.2876 5.23566 11.0342 2.94251 0.856016 -3.67024 1.06221 0.39129 10.6737 0.10479 -11.1923 -23.4227 -2.15702 -0.0 0.0 0.0 -0.0 0.0 0.0 6.85045e-14 -1.08814e-14 5.80575e-14 74.9268 56.0682 3.42651 -14.5564 -7.4119 26.681 -0.122718 9.93243 1.41024 -7.00436e-10 8.0749e-10 -5.36081e-10 -1.2151e-09 1.39087e-09 -9.20242e-10 -7.00422e-10 8.07491e-10 -5.36089e-10 7.73091 5.47488 0.417314 -7.00434e-10 8.07483e-10 -5.36074e-10 2.90554 0.965183 0.102902 -7.00433e-10 8.07485e-10 -5.3608e-10 10.2786 0.731801 0.0259123 -7.00447e-10 8.07486e-10 -5.36071e-10 2.22167 -0.733487 -0.20892 6.8416e-14 -1.08734e-14 5.78518e-14 -79.2994 34.0216 -2.05025 16.8771 -9.52843 -31.5471 0.204113 12.765 -1.82459 -5.54619e-10 -1.35573e-09 -7.5202e-10 -9.66e-10 -2.34568e-09 -1.29478e-09 -5.54624e-10 -1.35574e-09 -7.52008e-10 -7.73091 5.47488 -0.417314 -5.54621e-10 -1.35573e-09 -7.52026e-10 -2.90554 0.965183 -0.102902 -5.5462e-10 -1.35573e-09 -7.52028e-10 -10.2786 0.731801 -0.0259123 -5.54611e-10 -1.35573e-09 -7.5204e-10 -2.22167 -0.733487 0.20892 -2.03217e-16 0.0 -3.88251e-19 17.9406 -9.15206 9.66002 0.0825924 26.9536 0.937626 -13.9294 -14.5154 -38.2244 2.03217e-16 0.0 3.88251e-19 1.37753 -22.5244 -18.1539 0.18624 28.9321 -0.618739 -0.772144 -8.49773 -4.70263
50.2173 84.8415 -216.112 -1.9256 -4.8865 -2.3041 5.2326 11.0481 2.91792 0.886316 -3.69536 1.0565 0.328971 10.6914 0.156778 -11.1745 -23.3785 -2.03936 -0.0 0.0 0.0 -0.0 0.0 0.0 8.36851e-14 5.65995e-14 -3.98191e-15 74.9359 56.101 3.42597 -14.5358 -7.3947 26.6392 -0.125743 10.0534 1.42777 -8.11047e-11 1.45612e-10 -5.34917e-10 -1.45707e-10 2.5277e-10 -9.23475e-10 -8.10959e-11 1.45614e-10 -5.34933e-10 7.73091 5.47488 0.417314 -8.11036e-11 1.45606e-10 -5.34914e-10 2.90554 0.965183 0.102902 -8.11043e-11 1.45607e-10 -5.34919e-10 10.2786 0.731801 0.0259123 -8.11139e-11 1.4561e-10 -5.34911e-10 2.22167 -0.733487 -0.20892 8.35852e-14 5.6608e-14 -4.12478e-15 -79.3209 34.0555 -2.07971 16.9018 -9.55285 -31.6004 0.203829 12.7563 -1.82331 -3.31566e-10 -7.01381e-10 -3.39839e-10 -5.74842e-10 -1.21022e-09 -5.83721e-10 -3.31573e-10 -7.01386e-10 -3.39828e-10 -7.73091 5.47488 -0.417314 -3.31572e-10 -7.01389e-10 -3.39848e-10 -2.90554 0.965183 -0.102902 -3.31568e-10 -7.01385e-10 -3.39849e-10 -10.2786 0.731801 -0.0259123 -3.31559e-10 -7.01385e-10 -3.39863e-10 -2.22167 -0.733487 0.20892 -2.03217e-16 0.0 -3.88251e-19 17.8823 -9.14935 9.62103 0.0830937 26.9581 0.935762 -13.8333 -14.4363 -38.1342 2.03217e-16 0.0 3.88251e-19 1.35744 -22.5052 -18.124 0.186432 28.9188 -0.618009 -0.754399 -8.44831 -4.64507
50.2305 84.8445 -216.134 -1.8421 -4.9378 -2.3176 5.21862 11.0646 2.89342 0.921944 -3.73938 1.05083 0.272216 10.7011 0.209729 -11.1715 -23.308 -1.92076 -0.0 0.0 0.0 -0.0 0.0 0.0 9.70421e-14 1.24006e-13 -6.04896e-14 74.9839 56.1261 3.3717 -14.5308 -7.39067 26.6285 -0.127631 10.1318 1.43912 5.30465e-10 -4.79854e-10 -5.29306e-10 9.10391e-10 -8.2234e-10 -9.19054e-10 5.3047e-10 -4.79851e-10 -5.2933e-10 7.73091 5.47488 0.417314 5.30466e-10 -4.79858e-10 -5.29309e-10 2.90554 0.965183 0.102902 5.30464e-10 -4.79857e-10 -5.29311e-10 10.2786 0.731801 0.0259123 5.30458e-10 -4.79854e-10 -5.29306e-10 2.22167 -0.733487 -0.20892 9.69315e-14 1.24015e-13 -6.05726e-14 -79.3579 34.0746 -2.08755 16.9242 -9.575 -31.6488 0.203581 12.7487 -1.82218 -1.2471e-10 -6.65123e-11 6.7846e-11 -2.11792e-10 -1.0839e-10 1.19734e-10 -1.24718e-10 -6.65131e-11 6.78541e-11 -7.73091 5.47488 -0.417314 -1.24719e-10 -6.65237e-11 6.78343e-11 -2.90554 0.965183 -0.102902 -1.24712e-10 -6.65164e-11 6.78343e-11 -10.2786 0.731801 -0.0259123 -1.24704e-10 -6.65147e-11 6.78183e-11 -2.22167 -0.733487 0.20892 -2.03217e-16 0.0 -3.88251e-19 17.8142 -9.15348 9.57345 0.0841267 26.9622 0.933383 -13.7211 -14.3362 -38.0386 2.03217e-16 0.0 3.88251e-19 1.32942 -22.4866 -18.1015 0.186579 28.8972 -0.617045 -0.737575 -8.39838 -4.59225
50.2341 84.8505 -216.144 -1.8087 -4.964 -2.3431 5.2021 11.0697 2.88424 0.939862 -3.78222 1.04852 0.250819 10.6751 0.25308 -11.2017 -23.2083 -1.82864 -0.0 0.0 0.0 -0.0 0.0 0.0 9.67144e-14 1.56638e-13 -8.44338e-14 75.0483 56.1317 3.3179 -14.5292 -7.38945 26.625 -0.129195 10.1948 1.44826 8.93462e-10 -8.39539e-10 -4.74192e-10 1.53776e-09 -1.44063e-09 -8.27006e-10 8.93464e-10 -8.39536e-10 -4.74221e-10 7.73091 5.47488 0.417314 8.93462e-10 -8.39542e-10 -4.74198e-10 2.90554 0.965183 0.102902 8.9346e-10 -8.39543e-10 -4.742e-10 10.2786 0.731801 0.0259123 8.93457e-10 -8.39538e-10 -4.74195e-10 2.22167 -0.733487 -0.20892 9.661e-14 1.56646e-13 -8.44835e-14 -79.3794 34.0833 -2.09893 16.94 -9.59066 -31.6831 0.203458 12.7449 -1.82163 1.61063e-11 3.53477e-10 3.32495e-10 3.49475e-11 6.2004e-10 5.76217e-10 1.60976e-11 3.53478e-10 3.32502e-10 -7.73091 5.47488 -0.417314 1.6096e-11 3.53465e-10 3.32482e-10 -2.90554 0.965183 -0.102902 1.61033e-11 3.53474e-10 3.32483e-10 -10.2786 0.731801 -0.0259123 1.61113e-11 3.53476e-10 3.32467e-10 -2.22167 -0.733487 0.20892 -2.03217e-16 0.0 -3.88251e-19 17.7593 -9.17427 9.56534 0.0854383 26.9638 0.931045 -13.6371 -14.2584 -37.9686 2.03217e-16 0.0 3.88251e-19 1.30616 -22.4751 -18.0881 0.186449 28.8568 -0.615685 -0.72024 -8.3617 -4.53434
50.2209 84.8521 -216.174 -1.8236 -5.0532 -2.3196 5.18038 11.0557 2.90028 0.92997 -3.82602 1.05177 0.28028 10.5917 0.283601 -11.2748 -23.0618 -1.77125 -0.0 0.0 0.0 -0.0 0.0 0.0 7.28348e-14 1.36505e-13 -5.50622e-14 75.1427 56.1034 3.2652 -14.5328 -7.39245 26.6323 -0.130086 10.2284 1.45314 9.03723e-10 -7.95264e-10 -3.28974e-10 1.557e-09 -1.36429e-09 -5.76372e-10 9.03724e-10 -7.95263e-10 -3.29002e-10 7.73091 5.47488 0.417314 9.03723e-10 -7.95268e-10 -3.2898e-10 2.90554 0.965183 0.102902 9.03721e-10 -7.9527e-10 -3.28981e-10 10.2786 0.731801 0.0259123 9.03718e-10 -7.95266e-10 -3.28977e-10 2.22167 -0.733487 -0.20892 7.27704e-14 1.36513e-13 -5.51146e-14 -79.3765 34.0859 -2.11398 16.9486 -9.59921 -31.7018 0.203367 12.742 -1.8212 5.14855e-11 4.61359e-10 3.98232e-10 9.62763e-11 8.06225e-10 6.89389e-10 5.14775e-11 4.61359e-10 3.98237e-10 -7.73091 5.47488 -0.417314 5.14775e-11 4.61349e-10 3.9822e-10 -2.90554 0.965183 -0.102902 5.14823e-11 4.61357e-10 3.98222e-10 -10.2786 0.731801 -0.0259123 5.14895e-11 4.61361e-10 3.98206e-10 -2.22167 -0.733487 0.20892 -2.03217e-16 0.0 -3.88251e-19 17.7235 -9.22629 9.61936 0.0874172 26.963 0.92859 -13.5914 -14.2098 -37.9344 2.03217e-16 0.0 3.88251e-19 1.29101 -22.4803 -18.0837 0.185918 28.7886 -0.613704 -0.702381 -8.34285 -4.47109
